<svg id="Layer_1" data-name="Layer 1" xmlns="http://www.w3.org/2000/svg" viewBox="0 0 575.34 528"><defs><style>.cls-1{fill:#4f46e5;}</style></defs><path d="M910.9,258.52c-2.9-13.32-11.68-21.56-24-24.79-17.51-4.61-117.32-28.11-146.06-46A654.76,654.76,0,0,0,678,153.06c-7.75-3.71-26.63-8.9-38.73-10.69a11.13,11.13,0,0,0-3.44-15.93V102.79A44.6,44.6,0,1,0,585.75,51.3a71,71,0,0,1,8.79-.17,36,36,0,1,1,35.22,43.5h-2.47v30.56a11.13,11.13,0,0,0-6.42,17.18c-12.11,1.79-31,7-38.73,10.69a656,656,0,0,0-62.88,34.66c-28.74,17.9-128.55,41.4-146.06,46-12.31,3.23-21.08,11.47-24,24.79-1.66,7.63-6.37,39.26-5.92,47.39.91,16.46,16.07,11.4,19.38,1.17a37.73,37.73,0,0,0,2.47-8.64H895c.57,4.24,1.76,6.48,2.46,8.64,3.32,10.23,18.48,15.29,19.39-1.17C917.27,297.78,912.56,266.15,910.9,258.52Zm-528.32-4.26c15-5,106.47-24.76,135.69-35,24.91-8.78,49.85-17.56,75.16-25.05a121.18,121.18,0,0,1,36-4.86h1.2a121.18,121.18,0,0,1,36,4.86c25.31,7.49,50.26,16.27,75.17,25.05,29.22,10.29,120.71,30,135.68,35,20,6.73,18.09,26.88,17.36,33.94H365.22C364.48,281.14,362.59,261,382.58,254.26Z" transform="translate(-343.04 -14)"/><path d="M352.45,331.92v33.45h24.16v8.55H352.45v42.61H343V323.38h51v8.54Z" transform="translate(-343.04 -14)"/><path d="M452.15,323.74v92.79h-9.29V336.26h-1.61l-55.12,80.27h-11.4l64.79-92.79Z" transform="translate(-343.04 -14)"/><path d="M510.6,416.78a30.72,30.72,0,0,1-11-1.93,25.45,25.45,0,0,1-8.73-5.39,24.6,24.6,0,0,1-5.76-8.41,29.39,29.39,0,0,1-2.23-11h9q.38,8.43,5.27,13.56t13.43,5.15a17.47,17.47,0,0,0,7-1.43,19.06,19.06,0,0,0,5.75-3.84,17.65,17.65,0,0,0,3.91-5.7,17.37,17.37,0,0,0,1.42-7,15.54,15.54,0,0,0-1.73-7.69,17.13,17.13,0,0,0-4.59-5.26,28.35,28.35,0,0,0-6.44-3.65c-2.39-1-4.78-1.86-7.18-2.61a92.2,92.2,0,0,1-9.05-3,27.73,27.73,0,0,1-7.43-4.33,19,19,0,0,1-5.08-6.57,25.17,25.17,0,0,1,.19-19.45,24.56,24.56,0,0,1,5.45-7.61,24.3,24.3,0,0,1,8-5,26.51,26.51,0,0,1,9.78-1.81,25.32,25.32,0,0,1,9.73,1.87,23.81,23.81,0,0,1,13.13,12.94,24.66,24.66,0,0,1,1.92,9.73h-8.79a16.37,16.37,0,0,0-1.24-6.32,16.63,16.63,0,0,0-3.41-5.21,16.37,16.37,0,0,0-5.08-3.53,15.29,15.29,0,0,0-6.26-1.3,17.09,17.09,0,0,0-6.31,1.18,16.67,16.67,0,0,0-5.21,3.22,15.14,15.14,0,0,0-3.53,4.95,15.34,15.34,0,0,0-1.3,6.27,12.09,12.09,0,0,0,2.05,7.36,16.32,16.32,0,0,0,5.2,4.58,30.47,30.47,0,0,0,7,2.86q3.84,1.05,7.3,2.16a42.37,42.37,0,0,1,8.81,3.78,29.18,29.18,0,0,1,6.87,5.45A23,23,0,0,1,536,381a25.75,25.75,0,0,1,1.61,9.35,25.21,25.21,0,0,1-2.17,10.41,26.93,26.93,0,0,1-5.82,8.36,27.62,27.62,0,0,1-8.55,5.58A26.92,26.92,0,0,1,510.6,416.78Z" transform="translate(-343.04 -14)"/><path d="M630.06,324v92.41h-9.41V372.93H572.83v43.48h-9.16V324h9.16v40.88h47.82V332.42h-22V324h31.46Z" transform="translate(-343.04 -14)"/><path d="M689,332.17v76.19h22.3v8.29H657.39v-8.29h22.3V332.17h-22.3v-8.54h53.89v8.54H689Z" transform="translate(-343.04 -14)"/><path d="M774.11,416.65a45.82,45.82,0,0,1-18-3.59,49.25,49.25,0,0,1-15-9.79,47.41,47.41,0,0,1-10.4-14.61,42.1,42.1,0,0,1-3.91-18,46.57,46.57,0,0,1,13.87-33.32,48,48,0,0,1,15.06-10,46.52,46.52,0,0,1,18.39-3.67,47.11,47.11,0,0,1,18.28,3.6,48.79,48.79,0,0,1,15.11,9.85,47.34,47.34,0,0,1,10.35,14.74,45.2,45.2,0,0,1,0,36.42,47.82,47.82,0,0,1-25.46,24.71A46.92,46.92,0,0,1,774.11,416.65Zm0-84.85a36.69,36.69,0,0,0-15.05,3.1,39.25,39.25,0,0,0-12.2,8.36,39.19,39.19,0,0,0-11.15,27.44,35.36,35.36,0,0,0,3.1,14.67,38.66,38.66,0,0,0,8.37,12,39.64,39.64,0,0,0,12.19,8.12,37,37,0,0,0,14.74,3,37.53,37.53,0,0,0,14.81-3,39,39,0,0,0,20.63-20.39,36.48,36.48,0,0,0,3.09-14.92,36.87,36.87,0,0,0-3-14.8A39.09,39.09,0,0,0,789,334.83,37.14,37.14,0,0,0,774.11,331.8Z" transform="translate(-343.04 -14)"/><path d="M911.65,323.74v92.91h-9.41l-55-81.63h-.12v81.63H837.7V323.74h12.51l51.9,77.06h.13V332.3h-22v-8.56h31.46Z" transform="translate(-343.04 -14)"/><path class="cls-1" d="M380.14,542A46.33,46.33,0,0,1,367,540.2a31.85,31.85,0,0,1-10.66-5.32,24.52,24.52,0,0,1-7.13-8.86,28.4,28.4,0,0,1-2.57-12.51v-2.73h23.51a16.83,16.83,0,0,0,.58,4.4,12.88,12.88,0,0,0,1.73,3.9,8.7,8.7,0,0,0,3,2.79,8.88,8.88,0,0,0,4.43,1.06,9.24,9.24,0,0,0,6.43-2.48,8.11,8.11,0,0,0,2.7-6.2,7.53,7.53,0,0,0-.84-3.72,8.82,8.82,0,0,0-2.25-2.6,15.6,15.6,0,0,0-3.21-1.92c-1.2-.53-2.44-1.05-3.73-1.54-1.45-.67-2.87-1.24-4.24-1.74s-2.74-1-4.11-1.61A80.36,80.36,0,0,1,362,497a33.06,33.06,0,0,1-7.2-5.33,24.28,24.28,0,0,1-4.95-7,21.31,21.31,0,0,1-1.86-9.16,22,22,0,0,1,2.83-11.21A26.21,26.21,0,0,1,358.3,456a35.64,35.64,0,0,1,10.41-5.14,39,39,0,0,1,25.56.74,28.24,28.24,0,0,1,11.43,7.5,24.15,24.15,0,0,1,4.63,8.42,42.86,42.86,0,0,1,1.42,9.42H388.23a12.74,12.74,0,0,0-2.18-6.32q-1.8-2.47-6.3-2.48a9.47,9.47,0,0,0-5.78,1.92,6.1,6.1,0,0,0-2.57,5.14,6.93,6.93,0,0,0,1,3.84,10,10,0,0,0,3.34,2.79c1.63.95,3.38,1.88,5.27,2.78s3.74,1.76,5.59,2.54l4.17,1.8a83.19,83.19,0,0,1,8.61,4.27,31.31,31.31,0,0,1,6.87,5.27,22.41,22.41,0,0,1,4.57,6.88,23.56,23.56,0,0,1,1.66,9.23,27.54,27.54,0,0,1-2.5,12.19,24.32,24.32,0,0,1-6.81,8.56,28.35,28.35,0,0,1-10.21,5A49,49,0,0,1,380.14,542Z" transform="translate(-343.04 -14)"/><path class="cls-1" d="M585.16,449.09V542H560.63V504.84H528.9V542H504.36V449.09H528.9v35.06h31.73V469.91h-13V449.09h37.5Z" transform="translate(-343.04 -14)"/><path class="cls-1" d="M724.33,542a51,51,0,0,1-18.75-3.47,49.05,49.05,0,0,1-15.54-9.6,45.72,45.72,0,0,1-10.6-14.49,41.85,41.85,0,0,1-3.93-18,49.77,49.77,0,0,1,3.73-19.09,35.43,35.43,0,0,1,6-9.9,46.07,46.07,0,0,1,17.15-13.75,52,52,0,0,1,22-4.59,51.26,51.26,0,0,1,19.07,3.54,49.08,49.08,0,0,1,15.61,9.78,46.35,46.35,0,0,1,10.54,14.74,45.87,45.87,0,0,1,0,36.79,46.13,46.13,0,0,1-10.54,14.74,48.88,48.88,0,0,1-15.68,9.79A51.94,51.94,0,0,1,724.33,542Zm.14-73a24.88,24.88,0,0,0-10.35,2.11,23.85,23.85,0,0,0-8,5.69,25.88,25.88,0,0,0-5.08,8.3,27.88,27.88,0,0,0-1.8,10,29.23,29.23,0,0,0,1.8,10.29,24.93,24.93,0,0,0,23.77,16.35A23.58,23.58,0,0,0,735,519.64a24.22,24.22,0,0,0,7.9-5.82A26.73,26.73,0,0,0,748,505.4a28.33,28.33,0,0,0,0-19.82,27,27,0,0,0-5.14-8.49,24.35,24.35,0,0,0-18.37-8Z" transform="translate(-343.04 -14)"/><path class="cls-1" d="M907.08,455.9a27.37,27.37,0,0,1,8.54,10.84,33.88,33.88,0,0,1,2.76,13.57,35.61,35.61,0,0,1-.65,6.63,37.58,37.58,0,0,1-1.86,6.62,30.45,30.45,0,0,1-3.15,6.14,22.29,22.29,0,0,1-4.49,5,28.63,28.63,0,0,1-6.36,4.34,34,34,0,0,1-6.75,2.48,40.85,40.85,0,0,1-7.19,1.11q-3.73.25-7.71.25h-4.5V492.08h3.73a37,37,0,0,0,5.79-.44,13.93,13.93,0,0,0,4.93-1.66,9.37,9.37,0,0,0,3.41-3.41,11.22,11.22,0,0,0,1.29-5.76,10.63,10.63,0,0,0-1.42-5.89,9.08,9.08,0,0,0-3.72-3.28,15.93,15.93,0,0,0-5.21-1.42,54.79,54.79,0,0,0-6-.31h-9V542H845.92V449.09h31.47q3.74,0,7.72.19a69.67,69.67,0,0,1,7.83.8,37.13,37.13,0,0,1,7.51,2.05A25.4,25.4,0,0,1,907.08,455.9Z" transform="translate(-343.04 -14)"/></svg>